#!OML:ASF E:\Steps\Project 1\Capture day 1\Session 2\Subject.ASF
:FULLY-SPECIFIED
:DEGREES
407
root -1.10451 18.0181 20.9236 -155.077 1.20674 179.969
lowerback -24.4662 -2.66282 -8.47125
upperback 0.411123 -0.819148 0.119142
thorax 14.4496 -0.896121 4.7388
lowerneck -0.393843 -6.33636 -0.314736
upperneck 25.727 -6.6184 0.892473
head 8.04636 -2.20428 0.0215572
rclavicle 1.78906e-015 0
rhumerus -36.6087 -16.3865 -79.4095
rradius 30.0098
rwrist -1.55785
rhand -8.17239 -57.6335
rfingers 7.12502
rthumb 17.743 633.156
lclavicle 1.78906e-015 0
lhumerus -26.8802 -1.2499 82.1623
lradius 22.7939
lwrist -1.99222
lhand -22.5769 -12.8025
lfingers 7.12502
lthumb 3.85172 17.1425
rfemur -34.08 5.13636 19.9432
rtibia 24.5573
rfoot -25.8046 -14.6816
rtoes -29.8129
lfemur -24.1468 -6.69868 -21.4351
ltibia 9.17129
lfoot -8.03146 1.82526
ltoes -34.3899
408
root -1.09802 18.026 20.9218 -155.174 1.18868 180.069
lowerback -24.2671 -2.65823 -8.42513
upperback 0.430006 -0.85769 0.148648
thorax 14.3638 -0.911803 4.73211
lowerneck -0.630487 -6.38279 -0.340509
upperneck 26.0018 -6.67075 0.896871
head 8.1843 -2.2184 0.0158279
rclavicle -9.93923e-016 -9.54166e-015
rhumerus -36.7234 -16.1359 -79.5174
rradius 30.257
rwrist -1.8583
rhand -8.43907 -57.3467
rfingers 7.12502
rthumb 17.4863 633.42
lclavicle -9.93923e-016 -9.54166e-015
lhumerus -26.8124 -1.19602 82.0726
lradius 22.564
lwrist -2.13406
lhand -22.5339 -12.7096
lfingers 7.12502
lthumb 3.89323 17.2345
rfemur -34.2614 4.84275 19.8805
rtibia 24.6552
rfoot -25.694 -14.7176
rtoes -29.392
lfemur -24.0589 -6.66748 -21.2778
ltibia 9.22126
lfoot -8.12413 1.72364
ltoes -34.1575
409
root -1.09412 18.0304 20.9186 -155.152 1.29616 180.13
lowerback -23.9358 -2.63118 -8.35851
upperback 0.230811 -0.866654 0.124894
thorax 13.9375 -0.880599 4.66619
lowerneck -0.695041 -6.41455 -0.391286
upperneck 26.3462 -6.68138 0.973361
head 8.31957 -2.19497 0.0472002
rclavicle 1.15295e-014 1.59028e-014
rhumerus -37.1682 -15.9424 -79.5345
rradius 30.4765
rwrist -2.11263
rhand -8.25073 -56.8819
rfingers 7.12502
rthumb 17.6676 633.901
lclavicle 1.15295e-014 1.59028e-014
lhumerus -26.9777 -1.00006 81.899
lradius 22.274
lwrist -2.31203
lhand -22.5164 -13.0372
lfingers 7.12502
lthumb 3.91008 16.9067
rfemur -34.6079 4.45847 19.7432
rtibia 24.6602
rfoot -25.5871 -14.3327
rtoes -29.0639
lfemur -24.0752 -6.5993 -21.2051
ltibia 9.24961
lfoot -8.21568 1.74945
ltoes -34.1818
410
root -1.09084 18.0328 20.9131 -155.167 1.41564 180.161
lowerback -24.0096 -2.62527 -8.37449
upperback 0.301368 -0.851342 0.134035
thorax 14.0614 -0.885188 4.69031
lowerneck -0.652499 -6.38922 -0.360522
upperneck 26.2489 -6.65786 0.9596
head 8.27635 -2.18983 0.0403226
rclavicle 1.07344e-014 2.3059e-014
rhumerus -37.1421 -16.0533 -79.427
rradius 30.5432
rwrist -1.89785
rhand -8.34419 -56.3901
rfingers 7.12502
rthumb 17.5776 634.385
lclavicle 1.07344e-014 2.3059e-014
lhumerus -26.7699 -0.733246 81.8017
lradius 22.0173
lwrist -2.4883
lhand -22.4294 -13.4275
lfingers 7.12502
lthumb 3.99416 16.5148
rfemur -34.8917 4.00607 19.5233
rtibia 24.6235
rfoot -25.5326 -13.5873
rtoes -27.6267
lfemur -24.0267 -6.63221 -21.1692
ltibia 9.25949
lfoot -8.29976 1.8673
ltoes -33.6677
411
root -1.08804 18.0352 20.9055 -155.275 1.51129 180.211
lowerback -23.6792 -2.57502 -8.27756
upperback 0.197119 -0.840257 0.093125
thorax 13.7454 -0.853624 4.593
lowerneck -0.50891 -6.44047 -0.230459
upperneck 26.401 -6.68269 0.885775
head 8.29524 -2.17863 -0.00274303
rclavicle -1.23246e-014 -3.02153e-014
rhumerus -37.5298 -16.1505 -79.274
rradius 30.7106
rwrist -1.64808
rhand -8.60936 -56.3445
rfingers 7.12502
rthumb 17.3224 634.407
lclavicle -1.23246e-014 -3.02153e-014
lhumerus -27.0227 -0.717413 81.6585
lradius 21.9663
lwrist -2.51564
lhand -22.3467 -13.6323
lfingers 7.12502
lthumb 4.07394 16.3084
rfemur -35.0303 3.73742 19.2351
rtibia 24.5643
rfoot -25.4839 -12.8792
rtoes -26.2118
lfemur -23.8559 -6.74596 -21.0988
ltibia 9.26791
lfoot -8.32563 2.10649
ltoes -33.0932
412
root -1.08541 18.0375 20.8992 -155.395 1.57363 180.323
lowerback -23.7705 -2.52281 -8.1382
upperback 0.368506 -0.811408 0.0976172
thorax 13.9927 -0.85315 4.5257
lowerneck -0.373778 -6.35406 -0.142679
upperneck 26.0355 -6.61731 0.913366
head 8.14231 -2.1624 0.000533383
rclavicle -8.34896e-015 -2.38542e-015
rhumerus -37.4909 -16.308 -79.2128
rradius 30.9034
rwrist -1.54115
rhand -8.41049 -56.9175
rfingers 7.12502
rthumb 17.5138 633.851
lclavicle -8.34896e-015 -2.38542e-015
lhumerus -26.8051 -0.662347 81.584
lradius 21.8602
lwrist -2.60836
lhand -22.4048 -13.8352
lfingers 7.12502
lthumb 4.01791 16.1067
rfemur -35.1625 3.65009 18.986
rtibia 24.4647
rfoot -25.2337 -12.7815
rtoes -27.6628
lfemur -23.7084 -6.8507 -20.9424
ltibia 9.32548
lfoot -8.37598 2.35426
ltoes -32.9658
413
root -1.0814 18.0384 20.8952 -155.395 1.66803 180.471
lowerback -23.8913 -2.48838 -7.95164
upperback 0.462809 -0.813537 0.108985
thorax 14.1693 -0.854647 4.42933
lowerneck -0.643806 -6.30285 -0.310224
upperneck 26.2608 -6.57373 1.10604
head 8.28162 -2.13182 0.0869009
rclavicle -7.7526e-015 -2.14687e-014
rhumerus -37.4803 -16.418 -79.1629
rradius 31.0198
rwrist -1.51897
rhand -7.65841 -57.3201
rfingers 7.12502
rthumb 18.2375 633.515
lclavicle -7.7526e-015 -2.14687e-014
lhumerus -26.6306 -0.616328 81.4955
lradius 21.7581
lwrist -2.67656
lhand -22.4648 -13.5504
lfingers 7.12502
lthumb 3.95996 16.3926
rfemur -35.493 3.58942 18.7637
rtibia 24.3448
rfoot -24.8977 -12.8721
rtoes -29.8317
lfemur -23.7329 -6.90059 -20.7415
ltibia 9.42449
lfoot -8.50347 2.58307
ltoes -33.0364
